<svg fill="none" viewBox="0 0 32 32" aria-hidden="true" width="32" class="astro-B7OUSCLO" astro-icon="custom/android"><g clip-path="url(#astroicon:custom/androida)"><path fill="#0F0F0F" d="M12.334 18.578c.828 0 1.498.67 1.498 1.498v6.426a1.498 1.498 0 0 1-2.996 0v-6.426c0-.827.671-1.498 1.498-1.498Z"></path><path fill="#0F0F0F" d="M8.915 10.852c-.005.056-.01.114-.01.172v9.736c0 1.047.83 1.89 1.858 1.89h9.901c1.029 0 1.858-.843 1.858-1.89v-9.736c0-.058-.002-.116-.007-.172h-13.6Z"></path><path fill="#0F0F0F" d="M19.093 18.578c.827 0 1.498.67 1.498 1.498v6.426a1.498 1.498 0 1 1-2.996 0v-6.426c0-.827.67-1.498 1.498-1.498Zm-12.594-6.86c.827 0 1.497.67 1.497 1.498v6.426a1.498 1.498 0 0 1-2.996 0v-6.426c0-.827.671-1.498 1.499-1.498Zm18.43 0c.827 0 1.498.67 1.498 1.498v6.426a1.498 1.498 0 0 1-2.996 0v-6.426c0-.827.67-1.498 1.498-1.498ZM8.96 10.212C9 7.222 11.61 4.77 14.96 4.446h1.505c3.351.324 5.961 2.776 6.003 5.766H8.959Z"></path><path stroke="#0F0F0F" stroke-linecap="round" stroke-linejoin="round" stroke-width=".316" d="m9.48 4.158 1.58 2.737m10.888-2.737-1.58 2.737"></path><path fill="#fff" d="M13.701 7.532a.766.766 0 0 1-.773.76.767.767 0 0 1-.777-.756v-.004a.766.766 0 0 1 .773-.759.766.766 0 0 1 .777.755v.004Zm5.785 0a.766.766 0 0 1-.773.76.767.767 0 0 1-.777-.756v-.004a.766.766 0 0 1 .773-.759.766.766 0 0 1 .777.755v.004Z"></path></g><defs><clipPath id="astroicon:custom/androida"><path fill="#fff" d="M0 0h21.427v24H0z" transform="translate(5 4)"></path></clipPath></defs></svg>