<svg fill="none" viewBox="0 0 33 32" aria-hidden="true" width="32" class="astro-B7OUSCLO" astro-icon="custom/dotnet"><g clip-path="url(#astroicon:custom/dotneta)"><path fill="#0F0F0F" d="M3.56 21.4a.993.993 0 0 1-.71-.28.916.916 0 0 1-.292-.678c0-.267.097-.495.292-.686a.98.98 0 0 1 .71-.285c.284 0 .523.095.718.285.2.19.3.42.3.686 0 .262-.1.488-.3.679a1.001 1.001 0 0 1-.717.278Z"></path><path fill="#000" d="M14.7 21.242h-1.811l-4.772-7.528a3.37 3.37 0 0 1-.3-.593h-.042c.038.22.056.688.056 1.407v6.714H6.23V11h1.93l4.611 7.35c.195.304.32.514.376.628h.028c-.046-.271-.07-.73-.07-1.379V11H14.7v10.242ZM22.502 21.242h-5.608V11h5.385v1.443h-3.727v2.9h3.434v1.435h-3.434v3.028h3.95v1.436ZM30.471 12.443h-2.87v8.799h-1.658v-8.8H23.08V11h7.391v1.443Z"></path></g><defs><clipPath id="astroicon:custom/dotneta"><path fill="#fff" d="M0 0h28v10.457H0z" transform="translate(2.5 11)"></path></clipPath></defs></svg>