<svg fill="none" viewBox="0 0 32 32" aria-hidden="true" width="32" class="astro-B7OUSCLO" astro-icon="custom/elixir"><path d="M0 0h32v32H0z"></path><path stroke="#000" stroke-linejoin="round" stroke-width="1.5" d="M15.5 28a7.5 7.5 0 0 0 7.5-7.5c0-6.75-6.75-7.5-6.75-16.5C12.125 8.125 8 12.813 8 20.5a7.5 7.5 0 0 0 7.5 7.5Z"></path><path stroke="#000" stroke-width="1.5" d="M8.017 21.5C9.917 23.062 12.35 24 15 24a10.97 10.97 0 0 0 8-3.45"></path><path stroke="#000" stroke-width="1.5" d="M18 27.652c-2.867-1.354-5-6.505-5-12.652 0-4.163.978-7.868 2.5-10.248"></path><path stroke="#000" stroke-width="1.5" d="M16.376 6.158C14.914 7.618 14 9.695 14 12c0 4.418 3.358 8 7.5 8 .514 0 1.015-.055 1.5-.16"></path></svg>