<svg fill="none" viewBox="0 0 32 32" aria-hidden="true" width="32" class="astro-B7OUSCLO" astro-icon="custom/expo"><path fill="#000" d="M15.346 13.047c.206-.3.43-.337.611-.337.182 0 .484.038.689.337 1.611 2.195 4.27 6.569 6.233 9.796 1.28 2.103 2.263 3.72 2.465 3.924.757.773 1.795.291 2.398-.584.594-.862.758-1.468.758-2.113 0-.44-8.604-16.312-9.47-17.633-.832-1.27-1.105-1.591-2.53-1.591h-1.068c-1.422 0-1.627.32-2.46 1.591C12.104 7.758 3.5 23.63 3.5 24.07c0 .646.165 1.252.76 2.114.603.875 1.641 1.357 2.398.584.201-.206 1.184-1.821 2.464-3.925 1.962-3.226 4.614-7.6 6.226-9.796l-.002.001Z"></path></svg>