<svg fill="none" viewBox="0 0 32 32" aria-hidden="true" width="32" class="astro-B7OUSCLO" astro-icon="custom/flutter"><mask id="astroicon:custom/fluttera" width="23" height="28" x="5" y="2" maskUnits="userSpaceOnUse"><path fill="#fff" d="m27.615 14.923-7.538 7.539L27.615 30H19l-3.23-3.231-4.309-4.308L19 14.922l8.615.001ZM19 2 5 16l4.308 4.309L27.615 2H19Z"></path></mask><g mask="url(#astroicon:custom/fluttera)"><path fill="url(#astroicon:custom/flutterb)" d="M10.091 13.649h20.165v15.648H10.091z"></path><path fill="#000" d="M27.615 14.923H19l-7.537 7.54 4.306 4.306 11.846-11.846Z"></path></g><mask id="astroicon:custom/flutterc" width="23" height="28" x="5" y="2" maskUnits="userSpaceOnUse"><path fill="#fff" d="m27.615 14.923-7.538 7.539L27.615 30H19l-3.23-3.231-4.309-4.308L19 14.922l8.615.001ZM19 2 5 16l4.308 4.309L27.615 2H19Z"></path></mask><g mask="url(#astroicon:custom/flutterc)"><path fill="#000" d="M9.308 20.309 5 16 19 2h8.615L9.308 20.309Z"></path></g><mask id="astroicon:custom/flutterd" width="23" height="28" x="5" y="2" maskUnits="userSpaceOnUse"><path fill="#fff" d="m27.615 14.923-7.538 7.539L27.615 30H19l-3.23-3.231-4.309-4.308L19 14.922l8.615.001ZM19 2 5 16l4.308 4.309L27.615 2H19Z"></path></mask><g mask="url(#astroicon:custom/flutterd)"><path fill="#000" d="M15.769 26.77 19 30h8.615l-7.537-7.538-4.31 4.307Z"></path></g><mask id="astroicon:custom/fluttere" width="23" height="28" x="5" y="2" maskUnits="userSpaceOnUse"><path fill="#fff" d="m27.615 14.923-7.538 7.539L27.615 30H19l-3.23-3.231-4.309-4.308L19 14.922l8.615.001ZM19 2 5 16l4.308 4.309L27.615 2H19Z"></path></mask><g mask="url(#astroicon:custom/fluttere)"><path fill="url(#astroicon:custom/flutterf)" d="m15.769 26.77 6.39-2.212-2.081-2.096-4.31 4.307Z"></path></g><mask id="astroicon:custom/flutterg" width="23" height="28" x="5" y="2" maskUnits="userSpaceOnUse"><path fill="#fff" d="m27.615 14.923-7.538 7.539L27.615 30H19l-3.23-3.231-4.309-4.308L19 14.922l8.615.001ZM19 2 5 16l4.308 4.309L27.615 2H19Z"></path></mask><g mask="url(#astroicon:custom/flutterg)"><path fill="#000" d="m15.77 18.155-4.308 4.307 4.307 4.308 4.308-4.308-4.308-4.307Z"></path></g><path fill="url(#astroicon:custom/flutterh)" d="m27.615 14.923-7.538 7.539L27.615 30H19l-3.23-3.231-4.309-4.308L19 14.922l8.615.001ZM19 2 5 16l4.308 4.309L27.615 2H19Z"></path><defs><pattern id="astroicon:custom/flutterb" width="1" height="1" patternContentUnits="objectBoundingBox"><use xlink:href="#astroicon:custom/flutteri" transform="scale(.00787 .0101)"></use></pattern><linearGradient id="astroicon:custom/flutterf" x1="17.026" x2="20.234" y1="27.601" y2="24.393" gradientUnits="userSpaceOnUse"><stop stop-color="#1A237E" stop-opacity=".4"></stop><stop offset="1" stop-color="#1A237E" stop-opacity="0"></stop></linearGradient><radialGradient id="astroicon:custom/flutterh" cx="0" cy="0" r="1" gradientTransform="translate(5.636 3.909) scale(34.2569)" gradientUnits="userSpaceOnUse"><stop stop-color="#fff" stop-opacity=".1"></stop><stop offset="1" stop-color="#fff" stop-opacity="0"></stop></radialGradient></defs></svg>