<svg fill="none" viewBox="0 0 32 32" aria-hidden="true" width="32" class="astro-B7OUSCLO" astro-icon="custom/graphql"><path fill="#2B2B2B" d="m5.958 22.04.92.53 10.25-17.752-.92-.531-10.25 17.752Z"></path><path fill="#2B2B2B" d="M26.247 20.62h-20.5v1.063h20.5v-1.062Z"></path><path fill="#2B2B2B" d="m6.153 21.218 10.253 5.92.531-.92-10.253-5.92-.531.92ZM15.06 5.789l10.254 5.92.53-.92-10.253-5.92-.531.92Z"></path><path fill="#2B2B2B" d="m6.156 10.784.531.92 10.253-5.92-.53-.92-10.254 5.92Z"></path><path fill="#2B2B2B" d="m14.875 4.818 10.25 17.752.92-.53-10.25-17.753-.92.531ZM7.622 10.08H6.56v11.84h1.062V10.08Z"></path><path fill="#2B2B2B" d="M25.44 10.08h-1.062v11.84h1.062V10.08Z"></path><path fill="#2B2B2B" d="m15.762 25.884.464.804 8.917-5.149-.464-.804-8.917 5.15Z"></path><path fill="#2B2B2B" d="M26.848 22.266a2.237 2.237 0 0 1-3.053.819 2.237 2.237 0 0 1-.819-3.053 2.237 2.237 0 0 1 3.053-.82 2.227 2.227 0 0 1 .819 3.054ZM9.018 11.968a2.237 2.237 0 0 1-3.053.82 2.237 2.237 0 0 1-.82-3.054 2.237 2.237 0 0 1 3.053-.819 2.239 2.239 0 0 1 .82 3.053ZM5.152 22.266a2.239 2.239 0 0 1 .82-3.053 2.239 2.239 0 0 1 3.052.819 2.236 2.236 0 0 1-3.872 2.234ZM22.983 11.968a2.239 2.239 0 0 1 .819-3.053 2.239 2.239 0 0 1 3.053.82 2.239 2.239 0 0 1-.82 3.052 2.237 2.237 0 0 1-3.052-.819ZM16 28.531a2.232 2.232 0 0 1-2.234-2.233c0-1.236.999-2.234 2.234-2.234 1.235 0 2.234.998 2.234 2.234A2.236 2.236 0 0 1 16 28.53ZM16 7.936a2.232 2.232 0 0 1-2.234-2.234c0-1.235.999-2.233 2.234-2.233 1.235 0 2.234.998 2.234 2.233A2.232 2.232 0 0 1 16 7.936Z"></path></svg>