<svg fill="none" viewBox="0 0 33 32" aria-hidden="true" width="32" class="astro-B7OUSCLO" astro-icon="custom/ios"><path fill="#2B2B2B" d="M2.63 22.67h2.316v-9.857H2.63v9.856Zm1.153-11.15c.726 0 1.293-.558 1.293-1.255C5.076 9.558 4.509 9 3.783 9 3.067 9 2.5 9.558 2.5 10.265c0 .697.567 1.255 1.283 1.255Zm8.872-2.492c-3.915 0-6.37 2.669-6.37 6.937 0 4.268 2.455 6.928 6.37 6.928 3.905 0 6.36-2.66 6.36-6.928s-2.454-6.937-6.36-6.937Zm0 2.046c2.39 0 3.915 1.897 3.915 4.89 0 2.986-1.525 4.883-3.915 4.883-2.4 0-3.915-1.897-3.915-4.882 0-2.994 1.516-4.891 3.915-4.891Zm7.337 7.82c.102 2.474 2.13 3.999 5.217 3.999 3.245 0 5.291-1.6 5.291-4.148 0-1.999-1.153-3.124-3.878-3.747l-1.543-.353c-1.646-.391-2.325-.912-2.325-1.804 0-1.116 1.023-1.86 2.539-1.86 1.534 0 2.585.753 2.696 2.008h2.288c-.056-2.362-2.009-3.961-4.966-3.961-2.92 0-4.993 1.609-4.993 3.99 0 1.915 1.171 3.105 3.645 3.672l1.739.41c1.692.4 2.38.957 2.38 1.924 0 1.116-1.125 1.916-2.743 1.916-1.637 0-2.873-.809-3.022-2.046h-2.325Z"></path></svg>