<svg fill="none" viewBox="0 0 32 32" aria-hidden="true" width="32" class="astro-B7OUSCLO" astro-icon="custom/java"><g fill="#000" clip-path="url(#astroicon:custom/javaa)"><path d="M23.588 25.073h-.119v-.066h.32v.066h-.118v.331h-.083v-.33Zm.636.017h-.001l-.118.314h-.054l-.116-.314h-.002v.314h-.078v-.397h.115l.108.281.108-.281h.115v.397h-.077v-.314ZM12.974 16.95s-.825.48.587.642c1.71.195 2.585.167 4.47-.19 0 0 .496.31 1.188.58-4.226 1.811-9.564-.105-6.245-1.032ZM12.458 14.586s-.925.685.488.831c1.827.189 3.27.204 5.767-.277 0 0 .345.35.888.542-5.109 1.494-10.8.118-7.143-1.096ZM16.81 10.577c1.042 1.2-.273 2.278-.273 2.278s2.644-1.365 1.43-3.074c-1.134-1.594-2.004-2.386 2.704-5.116 0 0-7.39 1.846-3.86 5.912Z"></path><path d="M22.4 18.698s.61.503-.672.892c-2.44.739-10.153.962-12.295.03-.77-.336.674-.8 1.128-.898.474-.103.745-.084.745-.084-.857-.603-5.536 1.185-2.377 1.697 8.616 1.397 15.706-.63 13.47-1.637ZM13.37 12.138s-3.922.932-1.388 1.27c1.07.143 3.202.11 5.189-.056 1.623-.137 3.254-.428 3.254-.428s-.573.245-.987.528c-3.984 1.048-11.68.56-9.465-.511 1.874-.906 3.398-.803 3.398-.803ZM20.409 16.072c4.05-2.105 2.177-4.127.87-3.855-.32.067-.463.125-.463.125s.119-.187.346-.267c2.586-.91 4.574 2.68-.835 4.103 0 0 .063-.056.082-.106ZM17.967.256S20.21 2.5 15.84 5.95c-3.505 2.767-.8 4.345-.002 6.148-2.045-1.845-3.547-3.47-2.54-4.982 1.479-2.22 5.574-3.296 4.669-6.86Z"></path><path d="M13.769 21.774c3.887.25 9.857-.138 9.998-1.977 0 0-.272.697-3.213 1.25-3.318.625-7.41.552-9.837.152 0 0 .497.411 3.052.575ZM13.132 28.803c-.367.318-.754.496-1.102.496-.496 0-.764-.297-.764-.774 0-.516.287-.894 1.44-.894h.426v1.172Zm1.012 1.142V26.41c0-.902-.515-1.498-1.757-1.498-.725 0-1.36.179-1.875.407l.149.626c.406-.15.932-.288 1.448-.288.715 0 1.023.288 1.023.883v.447h-.357c-1.738 0-2.522.674-2.522 1.687 0 .873.517 1.37 1.49 1.37.625 0 1.091-.258 1.527-.636l.08.537h.794ZM17.52 29.945H16.26L14.739 25h1.103l.942 3.037.21.914c.477-1.32.814-2.66.983-3.95h1.072c-.288 1.627-.804 3.414-1.528 4.943ZM22.362 28.803c-.367.318-.755.496-1.103.496-.495 0-.764-.297-.764-.774 0-.516.288-.894 1.44-.894h.427v1.172Zm1.012 1.142V26.41c0-.902-.516-1.498-1.756-1.498-.726 0-1.36.179-1.876.407l.148.626c.407-.15.934-.288 1.45-.288.714 0 1.022.288 1.022.883v.447h-.357c-1.738 0-2.522.674-2.522 1.687 0 .873.516 1.37 1.489 1.37.625 0 1.092-.258 1.529-.636l.08.537h.793ZM9.144 30.784c-.289.421-.755.754-1.265.943l-.5-.588c.389-.2.722-.521.877-.82.134-.267.189-.61.189-1.432v-5.644H9.52v5.566c0 1.099-.088 1.542-.376 1.975Z"></path></g><defs><clipPath id="astroicon:custom/javaa"><path fill="#fff" d="M0 0h17.454v32H0z" transform="translate(7)"></path></clipPath></defs></svg>