<svg fill="none" viewBox="0 0 33 32" aria-hidden="true" width="32" class="astro-B7OUSCLO" astro-icon="custom/js"><path fill="#2B2B2B" d="m8.5 19.796 1.974-1.188c.38.672.727 1.24 1.557 1.24.797 0 1.299-.31 1.299-1.515v-8.195h2.423v8.229c0 2.496-1.471 3.633-3.618 3.633C10.197 22 9.071 21 8.5 19.796Zm8.57-.258 1.973-1.136c.52.843 1.195 1.463 2.389 1.463 1.004 0 1.645-.5 1.645-1.188 0-.826-.658-1.119-1.766-1.6l-.606-.26c-1.748-.74-2.908-1.67-2.908-3.632 0-1.808 1.385-3.185 3.549-3.185 1.54 0 2.648.534 3.444 1.928l-1.887 1.205c-.415-.74-.865-1.032-1.557-1.032-.71 0-1.16.447-1.16 1.032 0 .724.45 1.016 1.488 1.464l.606.258c2.06.878 3.22 1.774 3.22 3.788 0 2.17-1.714 3.357-4.016 3.357-2.25 0-3.705-1.067-4.414-2.462"></path></svg>