<svg fill="none" viewBox="0 0 32 32" aria-hidden="true" width="32" class="astro-B7OUSCLO" astro-icon="custom/php"><path fill="#2B2B2B" d="M3.512 11.915h4.181c1.228.01 2.117.364 2.668 1.06.552.697.734 1.65.546 2.856a5.475 5.475 0 0 1-.483 1.623 4.82 4.82 0 0 1-.999 1.435c-.52.541-1.076.884-1.67 1.03a7.688 7.688 0 0 1-1.84.218H4.041l-.593 2.965H1.28l2.232-11.187Zm1.825 1.778-.936 4.681c.062.01.125.016.187.016h.219c.998.01 1.83-.088 2.496-.297.666-.218 1.113-.977 1.342-2.278.187-1.092 0-1.721-.562-1.888-.551-.166-1.243-.244-2.075-.234a4.37 4.37 0 0 1-.359.016h-.327l.015-.016ZM13.378 8.934h2.153l-.608 2.98h1.935c1.06.021 1.851.24 2.371.656.53.416.687 1.207.469 2.372l-1.046 5.195h-2.184l.998-4.961c.104-.52.073-.89-.093-1.108-.167-.219-.526-.328-1.077-.328l-1.732-.015-1.28 6.412h-2.153l2.247-11.203ZM22.01 11.915h4.181c1.228.01 2.117.364 2.668 1.06.552.697.734 1.65.546 2.856a5.478 5.478 0 0 1-.483 1.623 4.822 4.822 0 0 1-.999 1.435c-.52.541-1.076.884-1.67 1.03a7.688 7.688 0 0 1-1.84.218H22.54l-.593 2.965h-2.169l2.232-11.187Zm1.825 1.778-.936 4.681c.062.01.125.016.187.016h.219c.998.01 1.83-.088 2.496-.297.666-.218 1.113-.977 1.342-2.278.187-1.092 0-1.721-.562-1.888-.551-.166-1.243-.244-2.075-.234a4.37 4.37 0 0 1-.359.016h-.327l.015-.016Z"></path></svg>