<svg fill="none" viewBox="0 0 32 32" aria-hidden="true" width="32" class="astro-B7OUSCLO" astro-icon="custom/python"><g fill="#2B2B2B" clip-path="url(#astroicon:custom/pythona)"><path d="M15.914 6.006c-5.064 0-4.748 2.196-4.748 2.196l.006 2.275h4.833v.683H9.252s-3.24-.367-3.24 4.743 2.828 4.929 2.828 4.929h1.688v-2.371s-.091-2.829 2.784-2.829h4.793s2.693.043 2.693-2.603V8.654s.41-2.648-4.884-2.648Zm-2.665 1.53a.868.868 0 1 1 0 1.739.869.869 0 1 1 0-1.74Z"></path><path d="M16.058 25.852c5.065 0 4.748-2.197 4.748-2.197l-.005-2.275h-4.833v-.683h6.752s3.241.367 3.241-4.743-2.828-4.929-2.828-4.929h-1.689v2.372s.091 2.828-2.783 2.828h-4.794s-2.693-.043-2.693 2.603v4.376s-.409 2.648 4.884 2.648Zm2.665-1.53a.868.868 0 0 1-.615-1.485.87.87 0 1 1 .615 1.485Z"></path></g><defs><clipPath id="astroicon:custom/pythona"><path fill="#fff" d="M0 0h20v19.92H0z" transform="translate(6 6)"></path></clipPath></defs></svg>