<svg fill="none" viewBox="0 0 32 32" aria-hidden="true" width="32" class="astro-B7OUSCLO" astro-icon="custom/react"><path fill="#2B2B2B" d="M16 18.952a2.496 2.496 0 1 0 0-4.992 2.496 2.496 0 0 0 0 4.992Z"></path><path fill="#2B2B2B" fill-rule="evenodd" d="M4.069 14.918c-.602.543-.852 1.064-.852 1.538s.25.995.852 1.538c.602.544 1.508 1.062 2.679 1.509 2.338.892 5.609 1.457 9.252 1.457 3.643 0 6.914-.565 9.252-1.457 1.171-.447 2.077-.965 2.68-1.509.602-.543.85-1.064.85-1.538s-.248-.995-.85-1.538c-.603-.544-1.509-1.062-2.68-1.509-2.338-.892-5.609-1.457-9.252-1.457-3.643 0-6.914.565-9.252 1.457-1.171.447-2.077.965-2.68 1.509Zm2.245-2.646c2.509-.958 5.933-1.538 9.686-1.538s7.177.58 9.686 1.538c1.253.478 2.308 1.062 3.06 1.742.754.68 1.254 1.504 1.254 2.442 0 .938-.5 1.762-1.253 2.442-.753.68-1.808 1.264-3.06 1.742-2.51.958-5.934 1.538-9.687 1.538-3.753 0-7.177-.58-9.686-1.538-1.253-.478-2.308-1.062-3.06-1.742C2.5 18.218 2 17.394 2 16.456c0-.938.5-1.762 1.253-2.442.753-.68 1.808-1.264 3.06-1.742Z" clip-rule="evenodd"></path><path fill="#2B2B2B" fill-rule="evenodd" d="M11.367 5.354c-.773-.25-1.348-.205-1.758.032-.41.237-.737.713-.907 1.507-.17.793-.165 1.836.033 3.074.396 2.471 1.542 5.586 3.364 8.741 1.822 3.155 3.946 5.706 5.888 7.284.973.79 1.874 1.316 2.646 1.566.772.25 1.348.205 1.758-.032.41-.237.737-.713.907-1.506.17-.794.165-1.837-.033-3.075-.396-2.47-1.543-5.586-3.364-8.741-1.822-3.155-3.946-5.705-5.889-7.284-.972-.79-1.873-1.316-2.645-1.566Zm3.413.621c2.084 1.694 4.299 4.37 6.175 7.62 1.876 3.25 3.087 6.506 3.512 9.158.212 1.323.233 2.53.021 3.521-.212.992-.676 1.837-1.488 2.306-.813.47-1.776.448-2.742.136-.965-.312-1.998-.934-3.038-1.78-2.084-1.693-4.299-4.37-6.175-7.62-1.877-3.249-3.087-6.505-3.512-9.156-.212-1.324-.234-2.53-.021-3.522.212-.992.675-1.837 1.488-2.306.812-.47 1.776-.448 2.741-.136.966.312 2 .934 3.04 1.78Z" clip-rule="evenodd"></path><path fill="#2B2B2B" fill-rule="evenodd" d="M23.298 6.893c-.17-.794-.496-1.27-.907-1.507-.41-.237-.986-.282-1.758-.032-.772.25-1.673.776-2.646 1.566-1.942 1.579-4.066 4.129-5.888 7.284-1.822 3.155-2.968 6.27-3.364 8.741-.198 1.238-.203 2.281-.033 3.075.17.793.496 1.27.907 1.506.41.237.986.282 1.758.032.772-.25 1.673-.776 2.645-1.566 1.943-1.579 4.067-4.129 5.889-7.284 1.821-3.155 2.968-6.27 3.364-8.741.198-1.238.203-2.28.033-3.074Zm1.169 3.267c-.425 2.651-1.636 5.907-3.512 9.157-1.876 3.25-4.09 5.926-6.175 7.62-1.04.845-2.073 1.467-3.039 1.78-.965.311-1.929.332-2.741-.137-.813-.469-1.276-1.314-1.488-2.306-.213-.992-.19-2.198.021-3.521.425-2.652 1.635-5.908 3.512-9.158 1.876-3.25 4.09-5.926 6.175-7.62 1.04-.845 2.073-1.467 3.038-1.779.966-.312 1.93-.333 2.742.136.812.469 1.276 1.314 1.488 2.306.212.992.19 2.198-.021 3.522Z" clip-rule="evenodd"></path></svg>