<svg fill="none" viewBox="0 0 32 32" aria-hidden="true" width="32" class="astro-B7OUSCLO" astro-icon="custom/ruby"><path d="M0 0h32v32H0z"></path><path stroke="#000" stroke-linejoin="round" stroke-width="1.5" d="M7.328 24.328 24.114 7.543M5.899 15.757 25.542 25.4M16.257 6.114l8.928 18.928m-12.5-6.07L10.9 10.756l8.215 1.786m-12.48 2.479 8.53-8.53a2.02 2.02 0 0 1 1.761-.564l5.985.997a2.02 2.02 0 0 1 1.682 1.838L25.9 25.757 8.906 24.45a2.02 2.02 0 0 1-1.838-1.683l-.998-5.985a2.02 2.02 0 0 1 .565-1.76Z"></path></svg>