<svg fill="none" viewBox="0 0 32 32" aria-hidden="true" width="32" class="astro-B7OUSCLO" astro-icon="svelte"><g clip-path="url(#astroicon:sveltea)"><path fill="#000" d="M26.005 6.57c-2.494-3.593-7.46-4.646-11.029-2.38L8.684 8.217a7.151 7.151 0 0 0-3.25 4.828c-.297 1.67-.045 3.386.756 4.874a6.908 6.908 0 0 0-1.076 2.7 7.699 7.699 0 0 0 1.304 5.811c2.517 3.593 7.46 4.645 11.03 2.38l6.292-4.004a7.151 7.151 0 0 0 3.249-4.828c.297-1.67.046-3.387-.755-4.874a6.91 6.91 0 0 0 1.075-2.7 7.539 7.539 0 0 0-1.304-5.835Z"></path><path fill="#fff" d="M14.358 26.774a4.988 4.988 0 0 1-5.354-1.99c-.732-1.008-1.007-2.266-.8-3.502.045-.206.09-.389.137-.595l.114-.366.32.229c.755.55 1.58.961 2.472 1.236l.228.068-.022.23c-.023.32.068.663.251.937a1.514 1.514 0 0 0 1.625.618c.137-.046.274-.091.389-.16l6.27-4.004c.32-.206.526-.504.594-.87a1.42 1.42 0 0 0-.229-1.052 1.502 1.502 0 0 0-1.624-.595 1.978 1.978 0 0 0-.39.16l-2.402 1.533a4.256 4.256 0 0 1-1.281.549 4.987 4.987 0 0 1-5.354-1.99 4.621 4.621 0 0 1-.778-3.502 4.333 4.333 0 0 1 1.968-2.905l6.292-4.005a4.98 4.98 0 0 1 1.281-.572 4.987 4.987 0 0 1 5.354 1.991c.733 1.007 1.007 2.265.801 3.5a5.718 5.718 0 0 1-.16.596l-.114.366-.32-.229a8.348 8.348 0 0 0-2.472-1.236l-.229-.068.023-.229a1.531 1.531 0 0 0-.251-.938 1.502 1.502 0 0 0-1.625-.595 1.98 1.98 0 0 0-.389.16l-6.27 4.004c-.32.206-.526.504-.594.87a1.42 1.42 0 0 0 .228 1.052 1.502 1.502 0 0 0 1.625.595c.137-.046.275-.091.389-.16l2.403-1.533a4.98 4.98 0 0 1 1.28-.572 4.987 4.987 0 0 1 5.355 1.99c.732 1.008 1.007 2.266.801 3.502a4.333 4.333 0 0 1-1.968 2.905l-6.292 4.005a4.98 4.98 0 0 1-1.282.572Z"></path></g><defs><clipPath id="astroicon:sveltea"><path fill="#fff" d="M0 0h22.447v27H0z" transform="translate(5 3)"></path></clipPath></defs></svg>