<svg fill="none" viewBox="0 0 32 32" aria-hidden="true" width="32" class="astro-B7OUSCLO" astro-icon="custom/ts"><g clip-path="url(#astroicon:custom/tsa)"><path fill="#000" d="M28.875 0H3.125A3.125 3.125 0 0 0 0 3.125v25.75C0 30.601 1.4 32 3.125 32h25.75C30.601 32 32 30.6 32 28.875V3.125C32 1.399 30.6 0 28.875 0Z"></path><path fill="#000" d="M28.875 0H3.125A3.125 3.125 0 0 0 0 3.125v25.75C0 30.601 1.4 32 3.125 32h25.75C30.601 32 32 30.6 32 28.875V3.125C32 1.399 30.6 0 28.875 0Z"></path><path fill="#fff" fill-rule="evenodd" d="M19.809 25.464v3.129c.508.26 1.11.456 1.804.586.695.13 1.427.196 2.196.196.75 0 1.463-.072 2.138-.215a5.239 5.239 0 0 0 1.775-.709c.509-.33.911-.76 1.208-1.29.297-.532.445-1.189.445-1.97 0-.568-.085-1.065-.254-1.492a3.488 3.488 0 0 0-.734-1.139 5.373 5.373 0 0 0-1.15-.895c-.446-.264-.95-.513-1.51-.747-.411-.17-.78-.335-1.106-.494a5.61 5.61 0 0 1-.831-.49 2.132 2.132 0 0 1-.528-.527 1.11 1.11 0 0 1-.186-.63c0-.216.055-.41.166-.583.11-.172.267-.32.47-.444.202-.124.45-.22.743-.289.293-.068.62-.102.978-.102a6.56 6.56 0 0 1 1.702.24c.293.08.579.183.856.307s.533.267.768.43v-2.923a7.639 7.639 0 0 0-1.56-.406 12.712 12.712 0 0 0-1.942-.132c-.743 0-1.448.08-2.113.24-.665.16-1.25.409-1.756.748-.505.338-.904.77-1.198 1.295-.293.525-.44 1.152-.44 1.882 0 .932.269 1.728.807 2.386.538.658 1.355 1.216 2.45 1.672.43.176.832.349 1.203.518.372.17.693.346.964.528.27.183.484.381.64.597.157.215.235.459.235.733 0 .202-.049.39-.146.562a1.302 1.302 0 0 1-.445.45 2.441 2.441 0 0 1-.744.298 4.464 4.464 0 0 1-1.042.108 6.014 6.014 0 0 1-3.864-1.428Zm-5.26-7.709h4.014v-2.567H7.374v2.567h3.994v11.433h3.18V17.755Z" clip-rule="evenodd"></path></g><defs><clipPath id="astroicon:custom/tsa"><path fill="#fff" d="M0 0h32v32H0z"></path></clipPath></defs></svg>